<?xml version="1.0" encoding="UTF-8"?>
<svg width="44px" height="44px" viewBox="0 0 44 44" version="1.1" xmlns="http://www.w3.org/2000/svg" xmlns:xlink="http://www.w3.org/1999/xlink">
    <title>User 01a</title>
    <defs>
        <circle id="path-1" cx="22" cy="22" r="22"></circle>
        <linearGradient x1="50%" y1="0%" x2="50%" y2="100%" id="linearGradient-3">
            <stop stop-color="#FFD4B3" offset="0%"></stop>
            <stop stop-color="#FFDCC2" offset="100%"></stop>
        </linearGradient>
    </defs>
    <g id="患者列表" stroke="none" stroke-width="1" fill="none" fill-rule="evenodd">
        <g id="患者建档" transform="translate(-448.000000, -402.000000)">
            <g id="Gantt_Chart" transform="translate(280.000000, 131.000000)">
                <g id="编组-4备份-5" transform="translate(30.000000, 229.000000)">
                    <g id="Country备份" transform="translate(110.000000, 26.000000)">
                        <g id="User-01a" transform="translate(28.000000, 16.000000)">
                            <mask id="mask-2" fill="white">
                                <use xlink:href="#path-1"></use>
                            </mask>
                            <use id="Mask" fill="#FFDDCF" fill-rule="nonzero" xlink:href="#path-1"></use>
                            <path d="M7.51874362,23.3933333 C6.328997,19.4420583 5.59566367,12.6866667 10.5987436,8.06666667 C14.4223063,4.53586966 24.752077,4.18 28.3454103,11.88 C28.9452624,13.1653974 28.1254103,15.18 26.512077,15.1066667 C25.8779872,15.0778444 25.4854103,17.0866667 25.1187436,18.3333333 C25.632077,23.3933333 30.2054708,23.4867675 32.5254103,27.3533333 C35.3854103,32.12 31.8654103,39.16 23.432077,39.16 C14.9987436,39.16 10.1642301,32.1792753 7.51874362,23.3933333 Z" id="Combined-Shape" fill="#130027" mask="url(#mask-2)" transform="translate(20.076038, 22.409826) scale(-1, 1) translate(-20.076038, -22.409826) "></path>
                            <path d="M35.4933333,34.9066667 C36.2103704,36.2755556 36.7481481,39.4533333 37.1066667,44.44 L6.89333333,44.44 C7.25185185,39.4533333 7.78962963,36.2755556 8.50666667,34.9066667 C9.58222222,32.8533333 14.08,30.5066667 22,27.8666667 C29.92,30.5066667 34.4177778,32.8533333 35.4933333,34.9066667 Z" id="Rectangle" fill="#E6864E" mask="url(#mask-2)"></path>
                            <path d="M25.52,29.6266667 C24.2718115,30.3111111 23.0735264,30.6533333 21.9251448,30.6533333 C20.7767632,30.6533333 19.6283816,30.3111111 18.48,29.6266667 L18.48,26.4 C18.0411198,26.4783111 17.704573,26.466635 17.3591431,26.4665989 C13.8410121,26.4662312 12.5143057,21.3415954 13.2,15.1066667 C13.64,15.1066667 14.6666667,15.1066667 16.1333333,13.0533333 C15.7666667,15.9133333 20.02,15.4733333 21.6333333,13.2 C20.8266667,15.9133333 22.9533333,17.7466667 24.7866667,16.6466667 C28.3816643,14.4896681 29.1897104,21.0651189 25.52,21.12 L25.52,29.6266667 Z" id="Mask" fill="url(#linearGradient-3)" mask="url(#mask-2)"></path>
                            <path d="M18.48,26.4 C20.4355556,26.0577778 22.1466667,25.3977778 23.6133333,24.42 C22.3911111,26.5222222 20.68,27.5733333 18.48,27.5733333 L18.48,26.4 Z" id="Path-2" fill="#FFB597" fill-rule="nonzero" mask="url(#mask-2)"></path>
                            <path d="M22.0048537,30.5029861 C23.0648692,30.455013 25.52,29.9358265 25.52,28.8141779 L25.52,27.8666667 C25.788992,27.8666667 26.5591923,28.5020787 26.9552679,29.04 C28.521149,31.1666667 26.7842599,33.0733333 25.3678156,33.0733333 C23.5804395,33.0733333 22.3962741,31.5800433 22,30.8615559 C21.6037259,31.5800433 20.4195605,33.0733333 18.6321844,33.0733333 C17.2157401,33.0733333 15.478851,31.1666667 17.0447321,29.04 C17.4408077,28.5020787 18.211008,27.8666667 18.48,27.8666667 L18.48,28.8141779 C18.48,29.9358263 21.0014849,30.4550128 22.0048542,30.5029861 L22.0048537,30.5029861 Z" id="Combined-Shape" fill="#FFFFFF" mask="url(#mask-2)"></path>
                        </g>
                    </g>
                </g>
            </g>
        </g>
    </g>
</svg>