<?xml version="1.0" encoding="UTF-8"?>
<svg width="44px" height="44px" viewBox="0 0 44 44" version="1.1" xmlns="http://www.w3.org/2000/svg" xmlns:xlink="http://www.w3.org/1999/xlink">
    <title>User 07b</title>
    <defs>
        <circle id="path-1" cx="22" cy="22" r="22"></circle>
        <filter x="-177.1%" y="-124.2%" width="454.2%" height="348.4%" filterUnits="objectBoundingBox" id="filter-3">
            <feOffset dx="0" dy="7" in="SourceAlpha" result="shadowOffsetOuter1"></feOffset>
            <feGaussianBlur stdDeviation="6" in="shadowOffsetOuter1" result="shadowBlurOuter1"></feGaussianBlur>
            <feColorMatrix values="0 0 0 0 0   0 0 0 0 0   0 0 0 0 0.145098039  0 0 0 0.04 0" type="matrix" in="shadowBlurOuter1" result="shadowMatrixOuter1"></feColorMatrix>
            <feMerge>
                <feMergeNode in="shadowMatrixOuter1"></feMergeNode>
                <feMergeNode in="SourceGraphic"></feMergeNode>
            </feMerge>
        </filter>
        <linearGradient x1="50%" y1="0%" x2="50%" y2="100%" id="linearGradient-4">
            <stop stop-color="#FFD7B9" offset="0%"></stop>
            <stop stop-color="#FFC299" offset="100%"></stop>
        </linearGradient>
        <path d="M16.1333333,23.5738753 C13.4444444,25.5294308 10.7555556,27.0938753 8.06666667,27.0938753 C5.37777778,27.0938753 2.68888889,25.5294308 0,23.5738753 C2.21637575,22.8993261 3.34058517,21.8923785 3.37262825,20.5530325 C3.37197201,20.3142636 3.37085769,19.9752259 3.36928528,19.3384959 C3.36903563,19.2373999 3.36877442,19.1338201 3.36850167,19.0278953 C3.36408758,17.3206277 3.3568966,15.068443 3.34684479,12.7798058 C1.24480807,10.0552248 2.01696942,6.86093536 2.67574525,6.94059714 C3.48396689,7.0383305 10.4804045,0.399081671 11.8224155,0.0593757773 C13.1644264,-0.280330117 16.5733333,0.817238099 17.16,3.87891762 C17.7466667,6.94059714 17.9918887,14.6578409 15.7666667,17.7389176 C15.1334427,18.6156893 14.1362373,18.9586217 12.7750506,18.7677148 C12.7732099,19.4084754 12.7693628,19.7680912 12.76,20.4938753 C12.777386,21.8944307 13.9018304,22.9000136 16.1333333,23.5738753 Z" id="path-5"></path>
        <path d="M2.78666667,0.733333333 L3.52,14.2266667 L0,14.2266667 L0.733333333,0.733333333 C1.18962963,0.244444444 1.53185185,0 1.76,0 C1.98814815,0 2.33037037,0.244444444 2.78666667,0.733333333 Z" id="path-7"></path>
        <path d="M2.95382959,3.47480524 L0.647425829,2.1422164 L0.733333333,0.733333333 C1.18962963,0.244444444 1.53185185,0 1.76,0 C1.98814815,0 2.33037037,0.244444444 2.78666667,0.733333333 L2.95382959,3.47480524 L2.95382959,3.47480524 Z" id="path-9"></path>
    </defs>
    <g id="患者列表" stroke="none" stroke-width="1" fill="none" fill-rule="evenodd">
        <g id="患者建档" transform="translate(-338.000000, -402.000000)">
            <g id="Gantt_Chart" transform="translate(280.000000, 131.000000)">
                <g id="编组-4备份-5" transform="translate(30.000000, 229.000000)">
                    <g id="Country" transform="translate(0.000000, 26.000000)">
                        <g id="User-07b" transform="translate(28.000000, 16.000000)">
                            <mask id="mask-2" fill="white">
                                <use xlink:href="#path-1"></use>
                            </mask>
                            <use id="Mask" fill="#D2E2FF" fill-rule="nonzero" xlink:href="#path-1"></use>
                            <g id="Group-10" mask="url(#mask-2)">
                                <g transform="translate(10.147318, 4.896908)" id="Group-11">
                                    <g transform="translate(0.000000, 0.000000)">
                                        <g transform="translate(10.303967, 14.695692) scale(-1, 1) translate(-10.303967, -14.695692) translate(0.000000, 0.000000)" id="Group-14" filter="url(#filter-3)">
                                            <g id="Path-48" transform="translate(0.688585, 2.297508)">
                                                <mask id="mask-6" fill="white">
                                                    <use xlink:href="#path-5"></use>
                                                </mask>
                                                <use id="Combined-Shape" fill="url(#linearGradient-4)" xlink:href="#path-5"></use>
                                                <path d="M12.76,18.7655843 C10.6088889,18.5211398 8.84888889,17.9344732 7.48,17.0055843 C9.04444444,18.9611398 10.8044444,20.1344732 12.76,20.5255843 L12.76,18.7655843 Z" fill="#FFB597" fill-rule="nonzero" mask="url(#mask-6)"></path>
                                            </g>
                                            <path d="M2.9619181,15.1230924 C1.95141104,12.692753 -2.0980819,7.74333172 1.39240579,4.66333172 C2.56573913,-1.05666828 9.04858477,-0.423574224 13.3752514,0.896425776 C16.2832066,1.78359855 18.4790725,3.53642578 18.9485848,2.21642578 C21.8819181,4.66333172 20.4129576,7.05642578 18.4790725,7.74333172 C16.7240131,8.36671969 13.7561357,8.98999839 8.71026229,8.40333172 C7.80886624,8.29852944 7.99763728,11.0591705 7.5159225,11.3576755 C6.79335033,11.805433 6.23240579,8.98999839 4.25128775,9.83535129 C2.2701697,10.6807042 3.44573913,14.6005062 5.57240579,14.6005062 C6.30573913,14.6005062 6.67240579,16.6166651 4.69240579,17.5699984 C3.25525143,18.2764258 3.6185115,16.702245 2.9619181,15.1230924 Z" id="Path-22" fill="#130027" fill-rule="nonzero"></path>
                                        </g>
                                    </g>
                                </g>
                            </g>
                            <g id="Group-23" mask="url(#mask-2)">
                                <g transform="translate(4.400000, 28.013333)">
                                    <path d="M33,7.23181543 C33.9308668,9.12448034 34.6642001,12.2533692 35.2,16.6184821 L0,16.6184821 C0.536056072,12.2528801 1.26938941,9.12399121 2.2,7.23181543 C3.13061059,5.33963965 6.31324177,3.51603161 11.7478935,1.76099131 C16.2525186,3.5207125 19.0091388,3.52035639 23.4477177,1.76 C28.8850391,3.51521204 32.0691332,5.33915052 33,7.23181543 Z" id="Combined-Shape" fill="#6A96EA" fill-rule="nonzero"></path>
                                    <g id="Group-22" stroke-width="1" fill="none" fill-rule="evenodd" transform="translate(15.840000, 2.053333)">
                                        <mask id="mask-8" fill="white">
                                            <use xlink:href="#path-7"></use>
                                        </mask>
                                        <use id="Mask" fill="#514141" fill-rule="nonzero" xlink:href="#path-7"></use>
                                        <mask id="mask-10" fill="white">
                                            <use xlink:href="#path-9"></use>
                                        </mask>
                                        <use id="Combined-Shape" fill="#645050" fill-rule="nonzero" xlink:href="#path-9"></use>
                                    </g>
                                    <path d="M22.2933333,0 L23.6133333,1.90666667 L19.0666667,4.69333333 L17.5996667,2.052 L16.1333333,4.69333333 L11.5866667,1.90666667 L12.9066667,0 L17.5996667,1.733 L22.2933333,0 Z" id="Combined-Shape" fill="#FFFFFF" fill-rule="evenodd"></path>
                                </g>
                            </g>
                        </g>
                    </g>
                </g>
            </g>
        </g>
    </g>
</svg>