<?xml version="1.0" encoding="UTF-8"?>
<svg width="44px" height="44px" viewBox="0 0 44 44" version="1.1" xmlns="http://www.w3.org/2000/svg" xmlns:xlink="http://www.w3.org/1999/xlink">
    <title>S_jiankangpinggu</title>
    <g id="工作台" stroke="none" stroke-width="1" fill="none" fill-rule="evenodd">
        <g id="工作台_运动评估_统计" transform="translate(-810.000000, -183.000000)">
            <g id="编组-2" transform="translate(790.000000, 145.000000)">
                <g id="S_jiankangpinggu" transform="translate(20.000000, 38.000000)">
                    <rect id="矩形" fill="#D1E7FF" x="0" y="0" width="44" height="44" rx="22"></rect>
                    <path d="M17.0769231,13 L17.0769231,14.2 C17.0768686,15.1531346 17.8388791,15.9410828 18.8147692,15.997 L18.9230769,16 C19.9006508,16.0000531 20.7088029,15.2570929 20.7661538,14.3056 L20.7692308,14.2 L20.7692308,13 L23.2307692,13 L23.2307692,14.2 C23.2298062,15.1742168 24.0239797,15.9723711 25.0227465,16.0009596 C26.0215134,16.0295482 26.8623434,15.278194 26.92,14.3056 L26.9230769,14.2 L26.9230769,13 L28.1538461,13 C28.6434766,13 29.113053,13.1896423 29.4592741,13.5272078 C29.8054951,13.8647733 30,14.3226103 30,14.8 L30,29.2 C30,29.6773897 29.8054951,30.1352267 29.4592741,30.4727922 C29.113053,30.8103577 28.6434766,31 28.1538461,31 L15.8461539,31 C15.3565234,31 14.886947,30.8103577 14.5407259,30.4727922 C14.1945049,30.1352267 14,29.6773897 14,29.2 L14,14.8 C14,14.3226103 14.1945049,13.8647733 14.5407259,13.5272078 C14.886947,13.1896423 15.3565234,13 15.8461539,13 L17.0769231,13 Z M18.5,11 C18.8333333,11 19,11.2 19,11.6 L19,13.4 C19,13.76 18.865,13.958 18.595,13.994 L18.5,14 C18.1666667,14 18,13.8 18,13.4 L18,11.6 C18,11.24 18.135,11.042 18.405,11.006 L18.5,11 Z M25.5,11 C25.8333333,11 26,11.2 26,11.6 L26,13.4 C26,13.76 25.865,13.958 25.595,13.994 L25.5,14 C25.1666667,14 25,13.8 25,13.4 L25,11.6 C25,11.24 25.135,11.042 25.405,11.006 L25.5,11 Z" id="形状结合" fill="#48A8FF" fill-rule="nonzero"></path>
                    <g id="编组-4" transform="translate(19.000000, 18.000000)" fill-rule="nonzero">
                        <path d="M0,3 C0,4.07179674 0.571796742,5.06217781 1.5,5.59807621 C2.42820322,6.1339746 3.57179678,6.1339746 4.5,5.59807621 C5.42820326,5.06217781 6,4.07179674 6,3 C6,1.34314574 4.65685425,0 3,0 C1.34314575,0 0,1.34314574 0,3 L0,3 Z" id="路径" fill="#FFFFFF"></path>
                        <path d="M0.750000013,8 L5.24999999,8 C5.74999998,8 6,8.16666667 6,8.5 C6,8.83333333 5.75,9 5.24999999,9 L0.750000013,9 C0.250000022,9 0,8.83333333 0,8.5 C0,8.16666667 0.250000004,8 0.750000013,8 Z" id="路径" fill="#FFFFFF"></path>
                        <path d="M3,1 C3.33333333,1 3.5,1.20833334 3.5,1.62500001 L3.5,2.5 L4.37499999,2.5 C4.79166665,2.5 5,2.66666667 5,3 C5,3.33333333 4.79166666,3.5 4.37499999,3.5 L3.5,3.5 L3.5,4.37499999 C3.5,4.79166665 3.33333333,5 3,5 C2.66666667,5 2.5,4.79166666 2.5,4.37499999 L2.5,3.5 L1.62500001,3.5 C1.20833335,3.5 1,3.33333333 1,3 C1,2.66666667 1.20833334,2.5 1.62500001,2.5 L2.5,2.5 L2.5,1.62500001 C2.5,1.20833335 2.66666667,1 3,1 Z" id="形状结合" fill="#48A8FF"></path>
                    </g>
                </g>
            </g>
        </g>
    </g>
</svg>