<?xml version="1.0" encoding="UTF-8"?>
<svg width="44px" height="44px" viewBox="0 0 44 44" version="1.1" xmlns="http://www.w3.org/2000/svg" xmlns:xlink="http://www.w3.org/1999/xlink">
    <title>shijian-2</title>
    <g id="工作台" stroke="none" stroke-width="1" fill="none" fill-rule="evenodd">
        <g id="工作台_运动评估_统计" transform="translate(-340.000000, -183.000000)" fill="#FFFFFF">
            <g id="编组-2备份-7" transform="translate(290.000000, 145.000000)">
                <g id="shijian-2" transform="translate(50.000000, 38.000000)">
                    <rect id="矩形" fill-opacity="0.1" x="0" y="0" width="44" height="44" rx="22"></rect>
                    <g id="Component/icon/ic_Plus" transform="translate(14.000000, 14.000000)">
                        <path d="M8.66666667,7.33333333 L13.3333333,7.33333333 C13.7015232,7.33333333 14,7.63181017 14,8 C14,8.36818983 13.7015232,8.66666667 13.3333333,8.66666667 L8.66666667,8.66666667 L8.66666667,13.3333333 C8.66666667,13.7015232 8.36818983,14 8,14 C7.63181017,14 7.33333333,13.7015232 7.33333333,13.3333333 L7.33333333,8.66666667 L2.66666667,8.66666667 C2.29847683,8.66666667 2,8.36818983 2,8 C2,7.63181017 2.29847683,7.33333333 2.66666667,7.33333333 L7.33333333,7.33333333 L7.33333333,2.66666667 C7.33333333,2.29847683 7.63181017,2 8,2 C8.36818983,2 8.66666667,2.29847683 8.66666667,2.66666667 L8.66666667,7.33333333 Z" id="Path"></path>
                    </g>
                </g>
            </g>
        </g>
    </g>
</svg>