<?xml version="1.0" encoding="UTF-8"?>
<svg width="44px" height="44px" viewBox="0 0 44 44" version="1.1" xmlns="http://www.w3.org/2000/svg" xmlns:xlink="http://www.w3.org/1999/xlink">
    <title>shijian-2</title>
    <g id="工作台" stroke="none" stroke-width="1" fill="none" fill-rule="evenodd">
        <g id="工作台_运动评估_统计" transform="translate(-560.000000, -183.000000)">
            <g id="编组-2备份-3" transform="translate(540.000000, 145.000000)">
                <g id="shijian-2" transform="translate(20.000000, 38.000000)">
                    <rect id="矩形" fill="#FFEDD1" x="0" y="0" width="44" height="44" rx="22"></rect>
                    <path d="M24.724035,24.8279476 C24.463715,25.0856984 24.0443701,25.0856984 23.7840501,24.8279476 L21.5560859,22.5999917 C21.4311409,22.4746148 21.3607091,22.3050042 21.360089,22.1280011 L21.360089,17.9800832 C21.3870665,17.6322422 21.6771914,17.3637481 22.0260783,17.3637481 C22.3749652,17.3637481 22.6650902,17.6322422 22.6920676,17.9800832 L22.6920676,21.8440067 L24.7280349,23.8759665 C24.984119,24.1385243 24.984119,24.55739 24.7280349,24.8199478 M22.0360782,14.0000806 C18.7953779,13.9855888 15.866038,15.9275872 14.6176335,18.918201 C13.3692291,21.9088147 14.0484228,25.3571513 16.3376664,27.6509855 C18.62691,29.9448197 22.0738894,30.6309304 25.0670138,29.3885354 C28.0601382,28.1461404 30.0080193,25.2207149 29.9999752,21.980004 C29.9890037,17.5836391 26.4324287,14.0199321 22.0360782,14.0000806" id="形状" fill="#FFA042" fill-rule="nonzero"></path>
                </g>
            </g>
        </g>
    </g>
</svg>