<?xml version="1.0" encoding="UTF-8"?>
<svg width="44px" height="44px" viewBox="0 0 44 44" version="1.1" xmlns="http://www.w3.org/2000/svg" xmlns:xlink="http://www.w3.org/1999/xlink">
    <title>gantanhao</title>
    <g id="工作台" stroke="none" stroke-width="1" fill="none" fill-rule="evenodd">
        <g id="工作台_运动评估_统计" transform="translate(-1310.000000, -183.000000)">
            <g id="编组-2备份-5" transform="translate(1290.000000, 145.000000)">
                <g id="gantanhao" transform="translate(20.000000, 38.000000)">
                    <rect id="矩形" fill="#EDF3F9" x="0" y="0" width="44" height="44" rx="22"></rect>
                    <path d="M22,14 C26.4183318,14 30,17.5816682 30,22 C30,26.4183318 26.4183318,30 22,30 C17.5816682,30 14,26.4183318 14,22 C14,17.5816682 17.5816682,14 22,14 Z M22,24.740327 C21.3309273,24.740327 20.7884751,25.2826179 20.7884751,25.9518519 C20.7884751,26.6209247 21.3309273,27.1633768 22,27.1633768 C22.6690727,27.1633768 23.2115249,26.6209247 23.2115249,25.9518519 C23.2115249,25.2826179 22.6690727,24.740327 22,24.740327 Z M21.9651592,23.793173 C22.5414844,23.793173 23.0086094,23.3258866 23.0086094,22.7497228 L23.0086094,17.8800734 C23.0086094,17.3037482 22.5414844,16.8366232 21.9651592,16.8366232 C21.388834,16.8366232 20.921709,17.3039095 20.921709,17.8800734 L20.921709,22.7497228 C20.921709,23.3260479 21.388834,23.793173 21.9651592,23.793173 Z" id="形状" fill="#99ACC9" fill-rule="nonzero"></path>
                </g>
            </g>
        </g>
    </g>
</svg>